<svg xmlns="http://www.w3.org/2000/svg" viewBox="0 0 20 20" style="enable-background:new 0 0 20 20" xml:space="preserve"><path d="M10 0C4.5 0 0 4.5 0 10s4.5 10 10 10 10-4.5 10-10S15.5 0 10 0zm0 18.9c-2.2 0-4.3-.8-5.9-2.2l4-4c-.1-.4-.2-.8-.4-1.1l-4.3 4.3C.2 12.2.6 6.5 4.3 3.3 7.6.4 12.6.4 15.9 3.3l-3.9 4c.1.4.2.8.4 1.1l4.3-4.3c3.3 3.7 2.9 9.3-.8 12.6-1.6 1.4-3.7 2.2-5.9 2.2zm3.7-8.3c-2-1.5-2.2-1.8-2.7-4.2-.6-1.6-2.3-2.4-3.8-1.8-1.3.5-2.1 1.7-2 3 .1.7.5 1.4 1.1 1.8 2 1.5 2.2 1.8 2.7 4.2.2 1.6 1.7 2.8 3.3 2.6 1.6-.2 2.8-1.7 2.6-3.3 0-.2-.1-.4-.1-.6-.1-.7-.5-1.3-1.1-1.7zM7 6.3c0 .3-.3.6-.6.6-.4 0-.6-.3-.6-.6 0-.1 0-.2.1-.3 0-.3.3-.6.6-.6s.6.3.6.6c0 .1-.1.2-.1.3zm.3-1.1c-.1-.3 0-.6.3-.7s.6 0 .7.3c.1.2 0 .5-.3.7-.2.1-.6-.1-.7-.3zm.9 1.5c-.2.1-.4.1-.5-.1-.1-.2 0-.4.1-.5.2-.1.4 0 .5.1.1.2.1.4-.1.5z" style="fill-rule:evenodd;clip-rule:evenodd;fill:#3a3a3a"/></svg>