<svg xmlns="http://www.w3.org/2000/svg" version="1.1" id="Layer_1" x="0" y="0" viewBox="0 0 20 20" style="enable-background:new 0 0 20 20" xml:space="preserve"><style>.st0{fill:#353535}</style><path class="st0" d="M10.7 9c0 .2-.2.4-.3.5v.3h.5l2.1-2c.1-.6 0-1 0-1.1-.2 0-.4.1-.6.2l-1.6 1.6c0 .3-.1.5-.1.5zm-1.6 1.1-1.5 1.5s0 .1.1.1c.2.2.5.4.8.5L9.7 11c-.1-.3-.3-.6-.6-.9zm-2.5 2.5-.5.5c0 .3.1.8.3 1.2L7.8 13c-.4-.2-.8-.3-1.2-.4z"/><path class="st0" d="M10 0C4.5 0 0 4.5 0 10s4.5 10 10 10 10-4.5 10-10S15.5 0 10 0zm0 18.9c-2.3 0-4.3-.8-5.9-2.2L5.7 15c-.2-.4-.3-.8-.4-1.1l-2 2c-1.4-1.6-2.2-3.6-2.2-5.9 0-4.9 4-8.9 8.9-8.9 2.3 0 4.3.8 5.9 2.2l-2.5 2.5c.1 0 .1.1.2.1.2.1.3.4.4.6v.3l2.7-2.7c1.4 1.6 2.2 3.6 2.2 5.9 0 4.9-4 8.9-8.9 8.9z"/><path class="st0" d="M14 13.6s0-.1-.1-.1h-.1c-3.9.4-3.6 3.8-3.6 3.8 0 .1.1.2.2.2h.6c.9 0 1.6-.3 2.2-.9.9-1.1.8-3 .8-3zm-7.9-1.2H6l-.1.1c0 .1 0 1.8 1 2.9.5.5 1.2.8 2 .8.2 0 .5 0 .8-.1.1 0 .1-.1.2-.2 0 .1.1-3.2-3.8-3.5zM6.9 9h-.1l-.1.1c0 .1-.1 1.6.8 2.6.5.5 1.1.7 1.9.7h.6c.1 0 .1-.1.2-.2-.1.1.1-2.8-3.3-3.2z"/><path class="st0" d="M10.3 13.5c0 .1.1.1.2.2h.3c.9 0 1.5-.3 2-.8.9-1 .7-2.7.7-2.7s0-.1-.1-.1h-.1c-3.3.4-3 3.3-3 3.4zM9.8 9h.1s.1 0 .1-.1c0 0 .5-2.8-2.7-3.4h-.1l-.1.1c0 .1-.3 1.6.6 2.6.5.6 1.2.8 2.1.8z"/><path class="st0" d="M10.3 9.9c0 .1.1.1.2.1h.2c.9 0 1.5-.3 2-.8.8-1 .6-2.5.6-2.6 0 0 0-.1-.1-.1h-.1c-3.3.6-2.8 3.4-2.8 3.4zm.1-3h.2s1.1-.9 1.1-2.1c0-1.2-1-2.1-1-2.2-.1-.1-.2-.1-.2 0 0 0-1.1.9-1.1 2.1-.1 1.2.9 2.2 1 2.2z"/><path d="M10.9 4.1c-.1.3-.3.6-.6.5-.3 0-.4-.3-.4-.7.1-.3.3-.6.6-.5.3.1.4.4.4.7zM8.3 6.4c.1.2.1.5-.1.6-.2.2-.5 0-.6-.2-.2-.3-.1-.6.1-.7.2-.1.5 0 .6.3z" style="fill:#fff"/></svg>