<svg xmlns="http://www.w3.org/2000/svg" version="1.1" id="Layer_1" x="0" y="0" viewBox="0 0 20 20" style="enable-background:new 0 0 20 20" xml:space="preserve"><style>.st0{fill:#353535}</style><path class="st0" d="M12.4 6.8c-.5 0-.9.1-1.3.3-1 .5-1.2.5-2.2 0-.4-.2-.8-.3-1.3-.3-1.7 0-3.1 1.6-3.1 3.3C4.5 13.9 7 16 10 16s5.5-2 5.5-5.9c0-1.7-1.4-3.3-3.1-3.3z"/><path class="st0" d="M9.3 4.3c-.3-.3-.9-.4-1.5-.4s-1 .1-1 .1c-.1 0-.1.1-.1.2 0 0 .3 1.1 1.2 1.9.9.7 2 .8 2.1.8.1 0 .2-.1.2-.2s.1-1.6-.9-2.4z"/><path d="M7.3 9.5c-.4.3-.9.3-1.2 0-.3-.3-.1-.9.3-1.2.4-.3.9-.3 1.2 0 .2.4.1.9-.3 1.2z" style="fill:#fff"/><path class="st0" d="M10 20C4.5 20 0 15.5 0 10S4.5 0 10 0s10 4.5 10 10-4.5 10-10 10zm0-18.9c-4.9 0-8.9 4-8.9 8.9s4 8.9 8.9 8.9 8.9-4 8.9-8.9-4-8.9-8.9-8.9z"/></svg>