<svg xmlns="http://www.w3.org/2000/svg" viewBox="0 0 20 20"><path d="M14.5 4.47a.18.18 0 0 0-.23-.11.16.16 0 0 0-.11.1s-.46 1-4.38 2A5.84 5.84 0 0 0 5.32 10a4.4 4.4 0 0 0 .92 4.24.18.18 0 0 0 .17.06.17.17 0 0 0 .14-.12l.07-.17.28-.6.33-.57c.09-.13.18-.25.28-.37a1.43 1.43 0 0 1 .14-.2 2 2 0 0 1 .22-.27l.43-.48.41-.36.15-.13.27-.21.18-.13a2.7 2.7 0 0 1 .34-.25l.49-.31a2.38 2.38 0 0 1 .3-.18l.11-.05.12-.07.21-.11a.12.12 0 0 1 .17 0 .18.18 0 0 1-.1.14l-.18.12-.11.07-.09.07a3.06 3.06 0 0 0-.29.21l-.42.35a2.7 2.7 0 0 0-.31.28l-.14.13-.23.22-.18.22-.35.4-.33.45c-.06.09-.12.18-.17.27l-.12.21a3.9 3.9 0 0 0-.19.35l-.24.54-.17.5-.11.42v.26a.18.18 0 0 0 .09.2 4.46 4.46 0 0 0 2 .48 4.79 4.79 0 0 0 2.59-.8 7 7 0 0 0 2.76-4.79 12.57 12.57 0 0 0-.21-5.59Zm-6.36 5a.75.75 0 0 1-1.06.12A.76.76 0 0 1 7 8.55a.89.89 0 0 1 .29-.22.86.86 0 0 1 1.19 0 .85.85 0 0 1-.33 1.17ZM10 20a10 10 0 1 1 10-10 10 10 0 0 1-10 10Zm0-18.92A8.92 8.92 0 1 0 18.92 10 8.92 8.92 0 0 0 10 1.08Z" style="fill:#3a3a3a;fill-rule:evenodd"/></svg>