<svg xmlns="http://www.w3.org/2000/svg" viewBox="0 0 20 20" style="enable-background:new 0 0 20 20" xml:space="preserve"><path d="M10 0C4.5 0 0 4.5 0 10s4.5 10 10 10 10-4.5 10-10S15.5 0 10 0zm0 18.9c-2.2 0-4.3-.8-5.9-2.2l2.2-2.2c-.2-.3-.4-.6-.6-1l-2.3 2.4C.2 12.2.6 6.5 4.3 3.3 7.6.4 12.6.4 15.9 3.3l-2.6 2.5c.2.3.4.7.5 1L16.6 4c3.3 3.7 2.9 9.3-.8 12.6-1.5 1.5-3.6 2.3-5.8 2.3zm0-14.6c-1.9 0-4 3-4 6.9 0 1.1.3 2.1 1 3 .7.9 1.8 1.4 3 1.4 2.3-.1 4.1-2 4-4.2v-.1c.1-4.5-2.3-7-4-7zM9.7 7c-.2.4-.7.5-1 .3-.4-.3-.5-.7-.3-1.1 0-.1.1-.2.2-.2.2-.3.6-.3.9-.2.4.3.4.8.2 1.2z" style="fill-rule:evenodd;clip-rule:evenodd;fill:#3a3a3a"/></svg>