<svg xmlns="http://www.w3.org/2000/svg" viewBox="0 0 20 20" style="enable-background:new 0 0 20 20" xml:space="preserve"><path d="M10 0C4.5 0 0 4.5 0 10s4.5 10 10 10 10-4.5 10-10S15.5 0 10 0zm0 18.9c-2.2 0-4.3-.8-5.9-2.2l2.1-2.1V13l-2.9 2.9C.1 12.3.3 6.6 4 3.3 7.4.2 12.5.2 15.9 3.3L13 6.2l.3.3c.2.2.3.4.4.6l3-3c3.3 3.7 2.9 9.3-.8 12.6-1.7 1.4-3.7 2.2-5.9 2.2zM12.8 7l-1.5-1.5v-.9c.3 0 .5-.2.5-.5s-.2-.5-.5-.5H8.7c-.3 0-.5.2-.5.5s.2.5.5.5h.1v.9L7.2 7c-.1.2-.2.4-.2.7v7.8c0 .5.4.9.9.9h4.3c.5 0 .9-.4.9-.9V7.7c0-.3-.1-.5-.3-.7zm-3.6.5c-.3.2-.7.2-.9-.1-.2-.3-.2-.6.1-.9.2-.2.5-.2.8 0 .2.3.2.8 0 1z" style="fill-rule:evenodd;clip-rule:evenodd;fill:#3a3a3a"/></svg>